<?xml version="1.0" encoding="UTF-8" standalone="no"?>
<svg
   xmlns:dc="http://purl.org/dc/elements/1.1/"
   xmlns:cc="http://creativecommons.org/ns#"
   xmlns:rdf="http://www.w3.org/1999/02/22-rdf-syntax-ns#"
   xmlns:svg="http://www.w3.org/2000/svg"
   xmlns="http://www.w3.org/2000/svg"
   xmlns:inkscape="http://www.inkscape.org/namespaces/inkscape"
   width="40"
   height="40"
   style="enable-background:new 0 0 512 512;"
   version="1.1"
   viewBox="0 0 512 512"
   xml:space="preserve"
   id="svg8">
    <g id="_x38_4-dev"><g id="g4">
    <circle
        style="opacity:1;fill:#252525;fill-opacity:1;fill-rule:nonzero;stroke:none;stroke-width:10.00000095;stroke-linecap:square;stroke-linejoin:round;stroke-miterlimit:4;stroke-dasharray:none;stroke-opacity:1;paint-order:stroke fill markers"
         id="path821"
         cx="256"
         cy="256"
         r="248.76273" />
    <path
     d="m 149.339,207.013 c -3.984,-2.978 -7.979,-4.467 -11.964,-4.467 h -17.907 v 107.268 h 17.918 c 3.984,0 7.979,-1.489 11.963,-4.465 3.982,-2.978 5.977,-7.444 5.977,-13.409 v -71.518 c -0.013,-5.955 -2.013,-10.433 -5.987,-13.409 z m 34.993,85.118 c 0,19.314 -11.922,48.579 -49.655,48.518 H 87.032 V 170.757 h 48.648 c 36.39,0 48.63,29.222 48.64,48.546 z m 103.375,-91.032 h -54.706 v 39.448 h 33.44 v 30.361 h -33.44 v 39.438 h 54.718 v 30.363 h -63.847 c -11.458,0.296 -20.987,-8.759 -21.274,-20.218 v -128.46 c -0.278,-11.448 8.789,-20.956 20.237,-21.242 h 64.884 z m 106.415,118.378 c -13.554,31.574 -37.836,25.289 -48.711,0 L 305.85,170.798 h 33.442 l 30.506,116.767 30.363,-116.767 h 33.45 z"
     id="path2"
     style="fill:#ffffff;fill-opacity:1"
    /></g></g><g
 id="Layer_1" /></svg>