<?xml version="1.0" encoding="UTF-8" standalone="no"?>
<svg
   xmlns="http://www.w3.org/2000/svg"
   xmlns:inkscape="http://www.inkscape.org/namespaces/inkscape"
   height="50.661022"
   viewBox="0 0 50.661022 50.661022"
   width="50.661022">
  <rect
     style="opacity:1;fill:#e6e2e2;fill-opacity:1;fill-rule:nonzero;stroke:none;stroke-width:3.21638918;stroke-miterlimit:4;stroke-dasharray:none;stroke-opacity:1"
     id="rect828"
     width="50.661022"
     height="50.661022"
     x="0"
     y="0"
     ry="9.1525421" />
  <path
     d="m 46.330511,17.530511 -5,2.75 -5,4.75 v 16.3 h 7 c 1.657,0 3,-1.343 3,-3 z"
     id="path2"
     inkscape:connector-curvature="0"
     style="fill:#4caf50" />
  <path
     d="m 4.3305111,17.530511 3.614,1.71 6.3859999,5.79 v 16.3 H 7.3305111 c -1.657,0 -3,-1.343 -3,-3 z"
     id="path4"
     inkscape:connector-curvature="0"
     style="fill:#1e88e5" />
  <polygon
     points="13,11.2 12,17 13,23.7 24,31.95 35,23.7 36,17 35,11.2 24,19.45 "
     id="polygon6"
     style="fill:#e53935"
     transform="translate(1.3305111,1.3305111)" />
  <path
     d="m 4.3305111,13.628511 v 3.902 l 9.9999999,7.5 v -12.5 l -3.124,-2.341 C 10.462511,9.6315111 9.5585111,9.3305111 8.6285111,9.3305111 v 0 c -2.374,0 -4.298,1.9239999 -4.298,4.2979999 z"
     id="path8"
     inkscape:connector-curvature="0"
     style="fill:#c62828" />
  <path
     d="m 46.330511,13.628511 v 3.902 l -10,7.5 v -12.5 l 3.124,-2.341 c 0.744,-0.5579999 1.648,-0.8589999 2.578,-0.8589999 v 0 c 2.374,0 4.298,1.9239999 4.298,4.2979999 z"
     id="path10"
     inkscape:connector-curvature="0"
     style="fill:#fbc02d" />
</svg>
